<svg width="35" height="32" viewBox="0 0 35 32" fill="none" xmlns="http://www.w3.org/2000/svg">
<path d="M28.7848 3.99267C27.3574 1.52397 24.7198 0 21.8683 0H12.6176C9.76274 0 7.1251 1.52397 5.70111 3.99267L1.07057 12.0056C-0.356858 14.4778 -0.356858 17.5223 1.07057 19.9944L5.69766 28.0073C7.1251 30.4795 9.76274 32 12.6142 32H21.8649C24.7198 32 27.3574 30.476 28.7814 28.0073L33.4085 19.9944C34.8359 17.5223 34.8359 14.4778 33.4085 12.0056L28.7814 3.99267H28.7848ZM31.0984 23.1734C31.0984 23.6837 30.826 24.156 30.3847 24.4077L17.955 31.5828C17.5136 31.838 16.9689 31.838 16.5275 31.5828L4.09784 24.4112C3.6565 24.156 3.38412 23.6837 3.38412 23.1768V8.82319C3.38412 8.3129 3.6565 7.84053 4.09784 7.58884L16.5275 0.410301C16.9689 0.155156 17.5136 0.155156 17.955 0.410301L30.3847 7.58539C30.826 7.84054 31.0984 8.3129 31.0984 8.81974V23.1734Z" fill="white"/>
</svg>
